<?xml version="1.0" encoding="utf-8"?>
<svg xmlns="http://www.w3.org/2000/svg" viewBox="0 0 500 500">
  <g transform="matrix(0.077101, 0, 0, -0.077101, -156.308029, 512.780884)" stroke="none" style="">
    <path d="M 5144.36 6453.85 C 5111.35 6259.23 4949.72 5266.35 4712.22 3811.66 C 4659.44 3468.59 4613.26 3171.72 4613.26 3148.63 C 4613.26 3125.56 4659.44 3085.97 4718.82 3059.57 C 4883.76 2987.01 4956.32 2858.36 4959.63 2640.64 L 4959.63 2455.93 L 4728.73 2356.97 C 4418.66 2228.32 4243.82 2228.32 4115.19 2356.97 C 4036.01 2439.43 4009.62 2508.71 3956.84 2789.09 C 3864.48 3260.78 3772.13 3560.97 3607.2 3904.03 C 3468.65 4191.01 3217.95 4560.45 3062.93 4695.7 L 2990.35 4761.66 L 3148.69 4797.94 L 3310.32 4830.92 L 3062.93 4949.67 C 2907.87 5025.54 2742.96 5078.33 2624.21 5088.23 L 2436.18 5108.02 L 2594.53 4913.39 C 3036.53 4365.82 3366.4 3557.66 3481.85 2739.62 C 3531.31 2399.85 3544.5 2356.97 3650.07 2234.93 C 3828.19 2030.41 3989.84 1944.65 4306.5 1888.55 C 4732.01 1812.7 4844.17 1743.43 5055.29 1423.46 C 5111.35 1337.7 5183.93 1261.84 5213.61 1255.24 C 5249.91 1248.64 5315.88 1317.9 5418.13 1469.65 C 5497.29 1591.7 5612.76 1720.34 5668.82 1753.33 C 5724.89 1786.3 5912.93 1842.4 6087.74 1878.68 C 6453.89 1951.25 6632.02 2043.6 6796.95 2244.81 C 6895.9 2366.87 6919 2426.24 6951.99 2667.03 C 7070.74 3504.88 7397.31 4319.64 7852.5 4900.21 C 7938.27 5015.66 8010.84 5111.32 8010.84 5121.2 C 8010.84 5147.61 7568.83 5038.73 7417.09 4972.77 C 7242.27 4896.91 7143.31 4814.45 7222.47 4807.85 C 7285.15 4804.54 7427 4778.17 7436.87 4768.26 C 7443.48 4764.95 7387.4 4692.38 7314.83 4613.22 C 6928.9 4177.81 6661.71 3617.04 6539.65 2977.11 C 6447.3 2495.53 6427.52 2439.43 6338.45 2353.67 C 6199.9 2228.32 6100.96 2221.71 5794.17 2330.58 C 5470.91 2442.74 5431.33 2502.12 5500.6 2759.4 C 5546.77 2937.53 5602.86 3006.8 5738.1 3062.87 C 5794.17 3085.97 5833.75 3128.84 5833.75 3165.13 C 5833.75 3198.13 5780.98 3511.49 5715.01 3861.14 C 5652.34 4210.79 5510.49 4979.37 5401.64 5566.52 C 5296.08 6153.68 5200.42 6641.87 5193.83 6648.46 C 5187.23 6655.06 5164.14 6569.3 5144.36 6453.85 Z" style="fill: rgb(255, 255, 255);"/>
    <path d="M 3524.72 1941.34 C 3524.72 1786.3 3547.81 1571.9 3574.2 1463.05 C 3735.84 849.507 4257.01 338.214 4873.86 193.068 C 5305.98 90.814 5866.74 226.067 6226.29 519.645 C 6674.9 882.492 6876.11 1275.02 6912.4 1848.99 C 6925.6 2043.6 6919 2172.25 6902.5 2172.25 C 6882.72 2172.25 6810.15 2112.87 6740.87 2037 C 6566.05 1858.87 6427.52 1792.9 6097.65 1730.23 C 5721.61 1657.67 5583.07 1575.21 5421.42 1324.51 C 5292.78 1123.3 5230.11 1067.21 5170.73 1100.21 C 5157.54 1110.09 5081.66 1212.36 5005.8 1327.81 C 4837.57 1581.81 4722.13 1651.06 4349.38 1726.92 C 3983.23 1799.51 3818.32 1878.68 3656.66 2066.69 L 3524.72 2221.71 L 3524.72 1941.34 Z" style="fill: rgb(255, 255, 255);"/>
  </g>
</svg>